<svg width="46" height="9" viewBox="0 0 46 9" fill="none" xmlns="http://www.w3.org/2000/svg">
<path d="M44.3571 3.85296C44.7929 3.85296 45.2107 3.8106 45.5188 3.7352C45.8269 3.6598 46 3.55754 46 3.45091V1.44064C46 1.22738 45.6538 1.02285 45.0376 0.872053C44.4214 0.721254 43.5857 0.636536 42.7143 0.636536H3.28571C2.41429 0.636536 1.57855 0.721254 0.962363 0.872053C0.346172 1.02285 0 1.22738 0 1.44064V3.45091C0 3.55754 0.173086 3.6598 0.481182 3.7352C0.789277 3.8106 1.20714 3.85296 1.64286 3.85296C2.51428 3.85296 3.35002 3.93768 3.96621 4.08848C4.5824 4.23928 4.92857 4.44381 4.92857 4.65707C4.92857 4.87033 4.5824 5.07486 3.96621 5.22566C3.35002 5.37646 2.51428 5.46118 1.64286 5.46118C1.20714 5.46118 0.789277 5.50354 0.481182 5.57894C0.173086 5.65433 0 5.7566 0 5.86323V7.8735C0 8.08676 0.346172 8.29129 0.962363 8.44209C1.57855 8.59289 2.41429 8.6776 3.28571 8.6776H42.7143C43.5857 8.6776 44.4214 8.59289 45.0376 8.44209C45.6538 8.29129 46 8.08676 46 7.8735V5.86323C46 5.7566 45.8269 5.65433 45.5188 5.57894C45.2107 5.50354 44.7929 5.46118 44.3571 5.46118C43.4857 5.46118 42.65 5.37646 42.0338 5.22566C41.4176 5.07486 41.0714 4.87033 41.0714 4.65707C41.0714 4.44381 41.4176 4.23928 42.0338 4.08848C42.65 3.93768 43.4857 3.85296 44.3571 3.85296V3.85296ZM42.7143 6.21302V7.8735H31.2143V6.66734H27.9286V7.8735H3.28571V6.21302C4.69199 6.12307 5.93673 5.92155 6.82512 5.64001C7.71351 5.35847 8.19542 5.01279 8.19542 4.65707C8.19542 4.30135 7.71351 3.95567 6.82512 3.67413C5.93673 3.39259 4.69199 3.19107 3.28571 3.10112V1.44064H27.9286V2.6468H31.2143V1.44064H42.7143V3.10112C41.308 3.19107 40.0633 3.39259 39.1749 3.67413C38.2865 3.95567 37.8046 4.30135 37.8046 4.65707C37.8046 5.01279 38.2865 5.35847 39.1749 5.64001C40.0633 5.92155 41.308 6.12307 42.7143 6.21302V6.21302Z" fill="#32DF8F"/>
</svg>
